# File created by Blade
# Date/Time:  Wed Jan 21 14:43:55 2015
# Frame Rate: 120.000 fps
#------------------------------------------------------
:FULLY-SPECIFIED
:DEGREES
456
root 23.719403 35.153801 -21.349753 -174.812352 8.180321 190.675514
Spine -11.399593 10.856558 -45.300970
Head 3.689318 -17.802069 -25.318815
LeftShoulder -9.078712 -10.617028 9.671699
LeftArm -51.500529 73.667000 -90.626166
LeftForeArm 40.072755 -0.000000 122.816683
LeftHand -1.820500 -0.000000 19.665984
LeftHandThumb1 -26.253704 0.000000 33.147579
RightShoulder -10.884996 -29.162390 -6.891155
RightArm 30.687836 -62.144873 43.749292
RightForeArm -44.460512 -0.000000 79.572754
RightHand 7.891098 -0.000000 -27.927767
RightHandThumb1 -24.326973 -0.000000 -32.862282
LeftUpLeg 8.308266 19.013758 20.471209
LeftLeg -7.084797 -0.000000 0.000000
LeftFoot -20.807447 29.853652 -14.004237
LeftToeBase 29.841305 -0.000000 -0.000000
RightUpLeg 2.908674 -2.003592 13.400498
RightLeg -1.225488 -0.000000 0.000000
RightFoot -19.719796 -15.739232 15.935699
RightToeBase 25.067352 -0.000000 -0.000000
457
root 23.695008 35.155558 -21.362535 -174.863411 8.016254 190.571878
Spine -11.271760 10.769022 -44.884637
Head 3.632197 -17.756434 -24.987467
LeftShoulder -9.139110 -10.629318 9.705029
LeftArm -51.669575 73.815444 -90.897898
LeftForeArm 39.895654 -0.000000 122.467681
LeftHand -1.693725 -0.000000 19.909664
LeftHandThumb1 -26.253704 0.000000 33.147579
RightShoulder -10.877123 -29.200407 -6.812930
RightArm 30.181768 -62.007511 44.070048
RightForeArm -44.225066 -0.000000 79.760916
RightHand 8.164963 -0.000000 -27.335325
RightHandThumb1 -24.326973 -0.000000 -32.862282
LeftUpLeg 8.259261 18.867260 20.329240
LeftLeg -7.053641 -0.000000 0.000000
LeftFoot -20.805338 29.823216 -13.976161
LeftToeBase 29.930895 -0.000000 -0.000000
RightUpLeg 2.929729 -2.009715 13.288108
RightLeg -1.214218 -0.000000 0.000000
RightFoot -19.799890 -15.916469 16.042661
RightToeBase 24.886162 -0.000000 -0.000000
458
root 23.666966 35.158198 -21.374004 -174.889644 7.838653 190.465479
Spine -11.155451 10.730492 -44.487054
Head 3.614975 -17.809882 -24.612672
LeftShoulder -9.119172 -10.647847 9.759532
LeftArm -51.936381 73.983718 -91.303803
LeftForeArm 39.614797 -0.000000 122.072611
LeftHand -1.396452 -0.000000 20.328337
LeftHandThumb1 -26.253704 0.000000 33.147579
RightShoulder -10.951228 -29.223784 -6.704350
RightArm 29.768829 -61.962318 44.321217
RightForeArm -44.238279 0.000000 79.870483
RightHand 8.018104 -0.000000 -27.864346
RightHandThumb1 -24.326973 -0.000000 -32.862282
LeftUpLeg 8.179788 18.717058 20.169862
LeftLeg -7.026435 -0.000000 0.000000
LeftFoot -20.812116 29.790739 -13.987871
LeftToeBase 29.898360 -0.000000 -0.000000
RightUpLeg 2.919478 -2.023596 13.171579
RightLeg -1.185740 -0.000000 0.000000
RightFoot -19.945174 -16.139752 15.955981
RightToeBase 24.814797 -0.000000 -0.000000
459
root 23.637180 35.161114 -21.382040 -174.910496 7.662717 190.348718
Spine -11.032864 10.681498 -44.068451
Head 3.548220 -17.846179 -24.244991
LeftShoulder -9.136947 -10.611648 9.791105
LeftArm -51.914012 74.195674 -91.425256
LeftForeArm 39.401559 -0.000000 121.690173
LeftHand -1.304560 -0.000000 20.658157
LeftHandThumb1 -26.253704 0.000000 33.147579
RightShoulder -10.978054 -29.224122 -6.629648
RightArm 29.222477 -61.881119 44.714892
RightForeArm -44.285051 -0.000000 80.024131
RightHand 7.928036 -0.000000 -27.965485
RightHandThumb1 -24.326973 -0.000000 -32.862282
LeftUpLeg 8.093410 18.577053 19.994189
LeftLeg -7.008138 -0.000000 0.000000
LeftFoot -20.781627 29.761862 -13.952792
LeftToeBase 29.880762 -0.000000 -0.000000
RightUpLeg 2.889722 -2.006257 13.043998
RightLeg -1.147979 -0.000000 0.000000
RightFoot -20.086843 -16.360700 15.983072
RightToeBase 24.829872 -0.000000 -0.000000
460
root 23.603290 35.164256 -21.392244 -174.953665 7.388219 190.222801
Spine -10.840109 10.607686 -43.633995
Head 3.534888 -17.932993 -23.869018
LeftShoulder -9.136029 -10.470691 9.801243
LeftArm -51.471902 74.448645 -91.144706
LeftForeArm 39.109893 -0.000000 121.316858
LeftHand -1.271728 -0.000000 20.844951
LeftHandThumb1 -26.253704 0.000000 33.147579
RightShoulder -11.047743 -29.307592 -6.499498
RightArm 28.754602 -61.717545 45.027927
RightForeArm -44.348115 0.000000 80.150544
RightHand 7.843330 -0.000000 -28.108579
RightHandThumb1 -24.326973 -0.000000 -32.862282
LeftUpLeg 7.981912 18.352700 19.804207
LeftLeg -6.993707 -0.000000 0.000000
LeftFoot -20.734155 29.732884 -13.893739
LeftToeBase 29.759650 -0.000000 -0.000000
RightUpLeg 2.896253 -2.146607 12.904358
RightLeg -1.158029 -0.000000 0.000000
RightFoot -20.166238 -16.541135 15.963279
RightToeBase 24.818816 -0.000000 -0.000000
461
root 23.566868 35.169202 -21.401761 -174.997881 7.195495 190.100184
Spine -10.634060 10.577023 -43.245668
Head 3.442360 -18.363636 -23.405001
LeftShoulder -9.221296 -10.613783 9.912489
LeftArm -51.862265 74.651510 -91.686233
LeftForeArm 38.774328 -0.000000 120.896743
LeftHand -0.897086 -0.000000 21.142010
LeftHandThumb1 -26.253704 0.000000 33.147579
RightShoulder -11.213961 -29.361686 -6.252237
RightArm 28.639678 -61.580791 44.899957
RightForeArm -44.222962 0.000000 80.340620
RightHand 7.788421 -0.000000 -28.107931
RightHandThumb1 -24.326973 -0.000000 -32.862282
LeftUpLeg 7.931968 18.239761 19.621412
LeftLeg -7.017864 -0.000000 0.000000
LeftFoot -20.731328 29.645099 -13.965632
LeftToeBase 29.805364 -0.000000 -0.000000
RightUpLeg 2.910853 -2.174488 12.758075
RightLeg -1.163152 -0.000000 0.000000
RightFoot -20.302455 -16.757602 16.065073
RightToeBase 24.599669 -0.000000 -0.000000
462
root 23.527823 35.172572 -21.411996 -175.037508 6.959525 189.977495
Spine -10.465582 10.548014 -42.779073
Head 3.420851 -18.450679 -23.091943
LeftShoulder -9.168988 -10.677790 9.913849
LeftArm -51.943041 74.739148 -91.831401
LeftForeArm 38.162972 -0.000000 120.544962
LeftHand -0.635553 -0.000000 21.059342
LeftHandThumb1 -26.253704 0.000000 33.147579
RightShoulder -11.280927 -29.447477 -6.144765
RightArm 28.297756 -61.444260 45.095947
RightForeArm -44.210561 0.000000 80.469281
RightHand 7.705409 -0.000000 -28.302404
RightHandThumb1 -24.326973 -0.000000 -32.862282
LeftUpLeg 7.854076 18.076759 19.432927
LeftLeg -7.025968 -0.000000 0.000000
LeftFoot -20.691182 29.571778 -13.923795
LeftToeBase 29.793672 -0.000000 -0.000000
RightUpLeg 2.914310 -2.208936 12.611646
RightLeg -1.157344 -0.000000 0.000000
RightFoot -20.420306 -16.988164 16.098490
RightToeBase 24.658312 -0.000000 -0.000000
463
root 23.489337 35.175791 -21.425683 -175.088546 6.703545 189.866192
Spine -10.279329 10.561597 -42.278080
Head 3.397515 -18.465626 -22.773548
LeftShoulder -9.093219 -10.637282 9.908133
LeftArm -51.565964 74.819068 -91.566325
LeftForeArm 37.488346 -0.000000 120.130497
LeftHand -0.316623 -0.000000 21.093085
LeftHandThumb1 -26.253704 0.000000 33.147579
RightShoulder -11.346430 -29.507465 -6.075823
RightArm 27.769103 -61.280205 45.494639
RightForeArm -43.887049 -0.000000 80.662627
RightHand 7.897020 0.000000 -28.004025
RightHandThumb1 -24.326973 -0.000000 -32.862282
LeftUpLeg 7.800499 17.919426 19.264437
LeftLeg -7.058230 -0.000000 0.000000
LeftFoot -20.658913 29.475925 -13.899142
LeftToeBase 29.809488 -0.000000 -0.000000
RightUpLeg 2.939641 -2.328300 12.478580
RightLeg -1.161164 -0.000000 0.000000
RightFoot -20.478136 -17.147464 16.076106
RightToeBase 24.815673 -0.000000 -0.000000
464
root 23.445569 35.178442 -21.435122 -175.106030 6.492630 189.747205
Spine -10.158780 10.597936 -41.779941
Head 3.426899 -18.484019 -22.514152
LeftShoulder -9.010936 -10.620016 9.853470
LeftArm -51.284384 74.878021 -91.340157
LeftForeArm 36.666367 -0.000000 119.759465
LeftHand -0.018086 0.000000 21.085925
LeftHandThumb1 -26.253704 0.000000 33.147579
RightShoulder -11.426877 -29.599437 -6.013245
RightArm 27.506410 -61.164756 45.636265
RightForeArm -43.898594 0.000000 80.771490
RightHand 8.002311 -0.000000 -28.104504
RightHandThumb1 -24.326973 -0.000000 -32.862282
LeftUpLeg 7.732356 17.843224 19.070971
LeftLeg -7.106592 -0.000000 0.000000
LeftFoot -20.593087 29.371055 -13.812348
LeftToeBase 29.796766 -0.000000 -0.000000
RightUpLeg 2.921002 -2.363578 12.324022
RightLeg -1.152137 -0.000000 0.000000
RightFoot -20.613324 -17.359679 16.163257
RightToeBase 24.588533 -0.000000 -0.000000
465
root 23.396707 35.176984 -21.463071 -175.148831 6.491963 189.683940
Spine -10.206593 10.757696 -41.199793
Head 3.501238 -18.382094 -22.345766
LeftShoulder -9.089391 -10.427607 9.785115
LeftArm -50.312088 75.014977 -90.468805
LeftForeArm 35.933196 -0.000000 119.331031
LeftHand 0.426368 -0.000000 21.130817
LeftHandThumb1 -26.253704 0.000000 33.147579
RightShoulder -11.444687 -29.674381 -6.006060
RightArm 27.226183 -61.195534 45.738770
RightForeArm -44.144011 0.000000 80.840198
RightHand 7.637332 -0.000000 -28.700365
RightHandThumb1 -24.326973 -0.000000 -32.862282
LeftUpLeg 7.910322 17.954464 18.958671
LeftLeg -7.315483 -0.000000 0.000000
LeftFoot -20.507369 29.258573 -13.736912
LeftToeBase 29.823992 -0.000000 -0.000000
RightUpLeg 2.987682 -2.214839 12.188588
RightLeg -1.143361 -0.000000 0.000000
RightFoot -20.729650 -17.526167 16.169573
RightToeBase 24.632129 -0.000000 -0.000000
466
root 23.345790 35.180253 -21.469626 -175.169018 6.329300 189.548082
Spine -10.101653 10.781771 -40.676168
Head 3.494839 -18.313098 -22.088261
LeftShoulder -9.126153 -10.404606 9.753733
LeftArm -49.839680 75.127746 -90.089438
LeftForeArm 35.424796 0.000000 118.937527
LeftHand 0.694863 -0.000000 21.230592
LeftHandThumb1 -26.253704 0.000000 33.147579
RightShoulder -11.475336 -29.839119 -5.987305
RightArm 27.235264 -61.031904 45.653999
RightForeArm -44.109905 -0.000000 80.904645
RightHand 7.736395 -0.000000 -28.957822
RightHandThumb1 -24.326973 -0.000000 -32.862282
LeftUpLeg 7.869456 17.921729 18.741813
LeftLeg -7.377835 -0.000000 0.000000
LeftFoot -20.442192 29.148235 -13.654242
LeftToeBase 29.870439 -0.000000 -0.000000
RightUpLeg 2.952080 -2.205838 12.004438
RightLeg -1.086112 -0.000000 0.000000
RightFoot -20.825372 -17.712161 16.127708
RightToeBase 24.853471 -0.000000 -0.000000
467
root 23.294108 35.184607 -21.472933 -175.176419 6.094857 189.407678
Spine -9.955545 10.794135 -40.154135
Head 3.520158 -18.285160 -21.814458
LeftShoulder -9.079566 -10.399111 9.703567
LeftArm -49.489665 75.176537 -89.800544
LeftForeArm 35.000718 0.000000 118.615196
LeftHand 0.774027 -0.000000 21.045850
LeftHandThumb1 -26.253704 0.000000 33.147579
RightShoulder -11.507829 -29.804539 -5.961140
RightArm 26.798587 -60.949178 45.925702
RightForeArm -43.981487 0.000000 81.113223
RightHand 7.651753 -0.000000 -28.506516
RightHandThumb1 -24.326973 -0.000000 -32.862282
LeftUpLeg 7.764766 17.766007 18.500162
LeftLeg -7.417274 -0.000000 0.000000
LeftFoot -20.356841 29.092519 -13.602723
LeftToeBase 29.727098 -0.000000 -0.000000
RightUpLeg 2.932611 -2.210129 11.818213
RightLeg -1.113300 -0.000000 0.000000
RightFoot -20.924821 -17.950381 16.167376
RightToeBase 24.914038 -0.000000 -0.000000
468
root 23.238413 35.190202 -21.474171 -175.152125 5.854111 189.256969
Spine -9.799241 10.712020 -39.636149
Head 3.383959 -18.219764 -21.456025
LeftShoulder -9.138297 -10.569333 9.683495
LeftArm -49.796091 75.166478 -90.105587
LeftForeArm 35.096571 -0.000000 118.388142
LeftHand 0.609131 -0.000000 20.686241
LeftHandThumb1 -26.253704 0.000000 33.147579
RightShoulder -11.542050 -29.748427 -5.908051
RightArm 26.639214 -60.962151 45.847090
RightForeArm -43.933011 -0.000000 81.286341
RightHand 7.459818 -0.000000 -28.389302
RightHandThumb1 -24.326973 -0.000000 -32.862282
LeftUpLeg 7.621172 17.652250 18.234904
LeftLeg -7.455697 -0.000000 0.000000
LeftFoot -20.343052 28.993012 -13.602461
LeftToeBase 29.834045 -0.000000 -0.000000
RightUpLeg 2.877808 -2.231245 11.623800
RightLeg -1.144873 -0.000000 0.000000
RightFoot -21.022335 -18.218702 16.213279
RightToeBase 24.607120 -0.000000 -0.000000
